<mxfile host="Electron" modified="2023-09-07T17:10:52.764Z" agent="Mozilla/5.0 (Windows NT 10.0; Win64; x64) AppleWebKit/537.36 (KHTML, like Gecko) draw.io/21.6.8 Chrome/114.0.5735.289 Electron/25.5.0 Safari/537.36" etag="PzAkYH3Ce49XddbUP40w" version="21.6.8" type="device">
  <diagram name="Page-1" id="pTDcZxHs93LKJzLqq06-">
    <mxGraphModel dx="490" dy="1025" grid="1" gridSize="10" guides="1" tooltips="1" connect="1" arrows="1" fold="1" page="1" pageScale="1" pageWidth="850" pageHeight="1100" math="0" shadow="0">
      <root>
        <mxCell id="0" />
        <mxCell id="1" parent="0" />
        <mxCell id="bNPXOfGY8x-Ky_HaiYJp-1" value="Main1_0_5" style="text;html=1;align=center;verticalAlign=middle;resizable=0;points=[];autosize=1;strokeColor=none;fillColor=none;fontSize=14;" vertex="1" parent="1">
          <mxGeometry x="340" y="80" width="90" height="30" as="geometry" />
        </mxCell>
        <mxCell id="bNPXOfGY8x-Ky_HaiYJp-2" value="MCFModel1_3" style="text;html=1;align=center;verticalAlign=middle;resizable=0;points=[];autosize=1;strokeColor=none;fillColor=none;fontSize=14;" vertex="1" parent="1">
          <mxGeometry x="340" y="110" width="120" height="30" as="geometry" />
        </mxCell>
        <mxCell id="bNPXOfGY8x-Ky_HaiYJp-3" value="OpenPort" style="text;html=1;align=center;verticalAlign=middle;resizable=0;points=[];autosize=1;strokeColor=none;fillColor=none;fontSize=14;" vertex="1" parent="1">
          <mxGeometry x="340" y="152" width="80" height="30" as="geometry" />
        </mxCell>
        <mxCell id="bNPXOfGY8x-Ky_HaiYJp-4" value="PortAbout" style="text;html=1;align=center;verticalAlign=middle;resizable=0;points=[];autosize=1;strokeColor=none;fillColor=none;fontSize=14;" vertex="1" parent="1">
          <mxGeometry x="335" y="182" width="90" height="30" as="geometry" />
        </mxCell>
        <mxCell id="bNPXOfGY8x-Ky_HaiYJp-5" value="PortAGV" style="text;html=1;align=center;verticalAlign=middle;resizable=0;points=[];autosize=1;strokeColor=none;fillColor=none;fontSize=14;" vertex="1" parent="1">
          <mxGeometry x="340" y="212" width="80" height="30" as="geometry" />
        </mxCell>
        <mxCell id="bNPXOfGY8x-Ky_HaiYJp-6" value="PortContainer" style="text;html=1;align=center;verticalAlign=middle;resizable=0;points=[];autosize=1;strokeColor=none;fillColor=none;fontSize=14;" vertex="1" parent="1">
          <mxGeometry x="335" y="252" width="110" height="30" as="geometry" />
        </mxCell>
        <mxCell id="bNPXOfGY8x-Ky_HaiYJp-7" value="PortLayout" style="text;html=1;align=center;verticalAlign=middle;resizable=0;points=[];autosize=1;strokeColor=none;fillColor=none;fontSize=14;" vertex="1" parent="1">
          <mxGeometry x="340" y="290" width="90" height="30" as="geometry" />
        </mxCell>
        <mxCell id="bNPXOfGY8x-Ky_HaiYJp-8" value="Splash" style="text;html=1;align=center;verticalAlign=middle;resizable=0;points=[];autosize=1;strokeColor=none;fillColor=none;fontSize=14;" vertex="1" parent="1">
          <mxGeometry x="345" y="330" width="70" height="30" as="geometry" />
        </mxCell>
        <mxCell id="bNPXOfGY8x-Ky_HaiYJp-9" value="PortBenchmark" style="text;html=1;align=center;verticalAlign=middle;resizable=0;points=[];autosize=1;strokeColor=none;fillColor=none;fontSize=14;" vertex="1" parent="1">
          <mxGeometry x="325" y="360" width="120" height="30" as="geometry" />
        </mxCell>
        <mxCell id="bNPXOfGY8x-Ky_HaiYJp-10" value="PBEAMPP4" style="text;html=1;align=center;verticalAlign=middle;resizable=0;points=[];autosize=1;strokeColor=none;fillColor=none;fontSize=14;" vertex="1" parent="1">
          <mxGeometry x="340" y="500" width="100" height="30" as="geometry" />
        </mxCell>
        <mxCell id="bNPXOfGY8x-Ky_HaiYJp-12" value="PBEAMPP1" style="text;html=1;align=center;verticalAlign=middle;resizable=0;points=[];autosize=1;strokeColor=none;fillColor=none;fontSize=14;" vertex="1" parent="1">
          <mxGeometry x="340" y="410" width="100" height="30" as="geometry" />
        </mxCell>
        <mxCell id="bNPXOfGY8x-Ky_HaiYJp-13" value="PBEAMPP2" style="text;html=1;align=center;verticalAlign=middle;resizable=0;points=[];autosize=1;strokeColor=none;fillColor=none;fontSize=14;" vertex="1" parent="1">
          <mxGeometry x="340" y="440" width="100" height="30" as="geometry" />
        </mxCell>
        <mxCell id="bNPXOfGY8x-Ky_HaiYJp-15" value="PBEAMPP3" style="text;html=1;align=center;verticalAlign=middle;resizable=0;points=[];autosize=1;strokeColor=none;fillColor=none;fontSize=14;" vertex="1" parent="1">
          <mxGeometry x="340" y="470" width="100" height="30" as="geometry" />
        </mxCell>
        <mxCell id="bNPXOfGY8x-Ky_HaiYJp-16" value="Dijkstra" style="text;html=1;align=center;verticalAlign=middle;resizable=0;points=[];autosize=1;strokeColor=none;fillColor=none;fontSize=14;" vertex="1" parent="1">
          <mxGeometry x="335" y="570" width="70" height="30" as="geometry" />
        </mxCell>
        <mxCell id="bNPXOfGY8x-Ky_HaiYJp-17" value="PFLOWUP" style="text;html=1;align=center;verticalAlign=middle;resizable=0;points=[];autosize=1;strokeColor=none;fillColor=none;fontSize=14;" vertex="1" parent="1">
          <mxGeometry x="330" y="610" width="90" height="30" as="geometry" />
        </mxCell>
        <mxCell id="bNPXOfGY8x-Ky_HaiYJp-18" value="TREEUP" style="text;html=1;align=center;verticalAlign=middle;resizable=0;points=[];autosize=1;strokeColor=none;fillColor=none;fontSize=14;" vertex="1" parent="1">
          <mxGeometry x="327.5" y="650" width="80" height="30" as="geometry" />
        </mxCell>
        <mxCell id="bNPXOfGY8x-Ky_HaiYJp-19" value="READMIN" style="text;html=1;align=center;verticalAlign=middle;resizable=0;points=[];autosize=1;strokeColor=none;fillColor=none;fontSize=14;" vertex="1" parent="1">
          <mxGeometry x="320" y="680" width="90" height="30" as="geometry" />
        </mxCell>
        <mxCell id="bNPXOfGY8x-Ky_HaiYJp-20" value="PREPAIR" style="text;html=1;align=center;verticalAlign=middle;resizable=0;points=[];autosize=1;strokeColor=none;fillColor=none;fontSize=14;" vertex="1" parent="1">
          <mxGeometry x="325" y="710" width="80" height="30" as="geometry" />
        </mxCell>
        <mxCell id="bNPXOfGY8x-Ky_HaiYJp-21" value="OUTPUT" style="text;html=1;align=center;verticalAlign=middle;resizable=0;points=[];autosize=1;strokeColor=none;fillColor=none;fontSize=14;" vertex="1" parent="1">
          <mxGeometry x="325" y="740" width="80" height="30" as="geometry" />
        </mxCell>
        <mxCell id="bNPXOfGY8x-Ky_HaiYJp-22" value="PSIMPLEX1_3" style="text;whiteSpace=wrap;fontSize=14;" vertex="1" parent="1">
          <mxGeometry x="330" y="772" width="85" height="30" as="geometry" />
        </mxCell>
        <mxCell id="bNPXOfGY8x-Ky_HaiYJp-24" value="Mcfutil" style="text;html=1;align=center;verticalAlign=middle;resizable=0;points=[];autosize=1;strokeColor=none;fillColor=none;fontSize=14;" vertex="1" parent="1">
          <mxGeometry x="330" y="802" width="60" height="30" as="geometry" />
        </mxCell>
        <mxCell id="bNPXOfGY8x-Ky_HaiYJp-25" value="PBLA1_3" style="text;html=1;align=center;verticalAlign=middle;resizable=0;points=[];autosize=1;strokeColor=none;fillColor=none;fontSize=14;" vertex="1" parent="1">
          <mxGeometry x="325" y="850" width="80" height="30" as="geometry" />
        </mxCell>
        <mxCell id="bNPXOfGY8x-Ky_HaiYJp-26" value="MCFLIGHT1_0_6" style="text;html=1;align=center;verticalAlign=middle;resizable=0;points=[];autosize=1;strokeColor=none;fillColor=none;fontSize=14;" vertex="1" parent="1">
          <mxGeometry x="305" y="900" width="130" height="30" as="geometry" />
        </mxCell>
        <mxCell id="bNPXOfGY8x-Ky_HaiYJp-27" value="PSTART" style="text;html=1;align=center;verticalAlign=middle;resizable=0;points=[];autosize=1;strokeColor=none;fillColor=none;fontSize=14;" vertex="1" parent="1">
          <mxGeometry x="310" y="950" width="80" height="30" as="geometry" />
        </mxCell>
      </root>
    </mxGraphModel>
  </diagram>
</mxfile>
